<svg width="26" height="27" viewBox="0 0 26 27" fill="none" xmlns="http://www.w3.org/2000/svg">
<g clip-path="url(#clip0_6_2)">
<path fill-rule="evenodd" clip-rule="evenodd" d="M15.6012 9.44895C16.4549 9.04434 17.55 8.44876 18.6702 7.63274C18.8385 8.08536 18.8194 8.48032 18.6727 8.79925C18.5688 9.02401 18.3979 9.2195 18.1843 9.37503C17.9529 9.54311 17.6735 9.66549 17.3721 9.73162C16.8003 9.85762 16.1566 9.78405 15.6012 9.44895ZM15.2909 13.5945L16.2954 14.215C13.9732 15.4442 13.1301 17.7266 12.1817 19.9497C11.7167 17.7266 11.3698 15.4442 9.31493 14.215L10.4542 13.5945C10.5622 13.5553 10.6586 13.4841 10.7295 13.3913C10.8005 13.2985 10.8424 13.1887 10.8492 13.0777C10.9774 10.9957 11.6384 10.075 12.458 9.49696C12.7519 9.28988 13.0595 9.1859 13.3518 9.1859C13.6441 9.1859 13.9291 9.28988 14.1781 9.49696C14.8719 10.075 15.3328 10.9957 15.0083 13.0777C14.991 13.1887 15.0091 13.2985 15.0599 13.3913C15.1106 13.4841 15.1915 13.5553 15.2909 13.5945ZM14.3503 0C15.5857 0.0333338 16.8015 0.274363 17.8285 0.743247C18.5396 1.06836 19.1895 1.49781 19.7643 2.01135C20.024 2.24318 20.2341 2.46715 20.4645 2.72497C21.1586 2.74911 22.2612 1.97342 22.8129 1.24759C21.7087 3.92048 17.6529 7.07694 14.9513 8.28474C14.9503 8.2843 14.9497 8.28368 14.9489 8.28315C14.526 7.93018 14.0264 7.7537 13.5075 7.7537C12.9886 7.7537 12.4507 7.93018 11.951 8.28315C11.9502 8.28359 11.9494 8.28439 11.9483 8.28474C9.50914 7.07694 6.13966 3.92048 5.61661 1.24759C6.01038 1.97342 6.94436 2.74911 7.64376 2.72497C7.93022 2.46723 8.1891 2.24318 8.49903 2.01135C9.18555 1.49781 9.92875 1.06836 10.7105 0.743247C11.8396 0.274363 13.1078 0.0333338 14.3503 0ZM11.0452 9.44895C10.2795 9.04434 9.31388 8.44876 8.37113 7.63274C8.10443 8.08536 8.03767 8.48032 8.11497 8.79925C8.17004 9.02401 8.29843 9.2195 8.4782 9.37503C8.6731 9.54311 8.92591 9.66549 9.21289 9.73162C9.75736 9.85762 10.417 9.78405 11.0452 9.44895Z" fill="#072746"/>
<path fill-rule="evenodd" clip-rule="evenodd" d="M19.9086 6.63278C20.5389 6.0585 21.1084 5.42286 21.5724 4.85565L21.7349 5.24107C22.2493 6.56001 22.4484 7.87365 22.2877 9.35201L22.0312 11.6979L21.9114 12.914C21.6345 15.8996 21.9508 18.9202 23.1106 21.6846L20.3237 19.2157L17.7797 22.7312L15.7415 20.5887L11.4707 26.4905L8.483 20.5888L5.97906 22.7313L4.19939 19.2158L0.875665 21.6846C2.63643 18.9203 3.60942 15.8997 3.98169 12.9141L4.12624 11.698L4.37984 9.35209C4.54056 7.87365 5.02508 6.56001 5.82649 5.24116L6.07265 4.85574C6.41334 5.42295 6.84454 6.0585 7.35006 6.63287L7.13258 7.00201C6.71009 7.719 6.50886 8.52069 6.69438 9.28313C6.81403 9.77421 7.08404 10.1953 7.4562 10.5168C7.81755 10.829 8.26249 11.0395 8.74026 11.15C9.05149 11.222 9.37332 11.2516 9.69735 11.2415C9.57547 11.6695 9.4943 12.1135 9.44301 12.5658L6.37962 14.234L8.46783 15.4832C8.63474 15.5831 8.79152 15.6975 8.93658 15.8253C10.5908 17.475 11.1627 22.3555 11.6611 24.7393C12.6779 22.3555 14.3108 17.475 16.3238 15.8253C16.4966 15.6975 16.6783 15.5831 16.8669 15.4832L19.2267 14.234L16.5259 12.5658C16.5729 12.1135 16.5883 11.6695 16.5595 11.2415C16.8813 11.2516 17.2096 11.222 17.5364 11.15C18.0382 11.0395 18.529 10.829 18.9582 10.5168C19.4001 10.1953 19.7618 9.77421 19.9881 9.28313C20.3395 8.52069 20.3124 7.71909 20.0459 7.00201L19.9087 6.63287L19.9086 6.63278Z" fill="#072746"/>
</g>
<defs>
<clipPath id="clip0_6_2">
<rect width="22.2349" height="26.6819" fill="white" transform="matrix(1 0 -0.108068 0.994144 3.23291 0)"/>
</clipPath>
</defs>
</svg>
