<svg width="29" height="24" viewBox="0 0 29 24" fill="none" xmlns="http://www.w3.org/2000/svg">
<path fill-rule="evenodd" clip-rule="evenodd" d="M22.0018 21.593L22.0021 21.5904L22.0323 21.5334L28.2096 1.49145L28.2165 1.42783C28.2708 0.928106 28.1315 0.492008 27.7573 0.230879C27.4289 0.00156366 27.0239 -0.0143425 26.7363 0.00686587C26.4681 0.0307466 26.2002 0.0840994 25.9377 0.165929C25.8257 0.200598 25.7147 0.23951 25.605 0.282575L25.5869 0.289202L2.3485 8.98332L2.34155 8.98597C2.27127 9.00898 2.202 9.03598 2.13409 9.06683C1.96785 9.13764 1.80657 9.2219 1.65205 9.31868C1.34406 9.51486 0.748581 9.97614 0.761043 10.7078C0.77105 11.3149 1.14926 11.6993 1.41151 11.8995C1.56644 12.0163 1.73604 12.1141 1.91714 12.1911L1.95779 12.2096L1.97069 12.2136L1.97959 12.2176L5.739 13.5232C5.69929 13.7658 5.69635 14.0137 5.73503 14.2589L6.88736 21.6275C6.95041 22.0292 7.14204 22.3875 7.43534 22.6522C7.72863 22.9169 8.10887 23.0747 8.52264 23.1033C8.9364 23.132 9.36292 23.0301 9.74229 22.812C10.1217 22.5939 10.4348 22.2705 10.6378 21.8873L14.0409 18.6451L18.8456 22.6375L18.9168 22.6694C19.3703 22.8761 19.8072 22.9411 20.2198 22.8868C20.6325 22.8311 20.9736 22.6614 21.2372 22.4692C21.5425 22.243 21.7975 21.9548 21.982 21.6275L21.9951 21.605L22 21.597L22.0018 21.593ZM7.7234 13.7526C7.71066 13.6708 7.7252 13.5843 7.76492 13.5057C7.80464 13.427 7.86747 13.3603 7.94428 13.3151L22.0801 4.96433C22.0801 4.96433 22.9099 4.49377 22.8307 4.96433C22.8307 4.96433 22.9605 5.04651 22.5012 5.43224C22.0666 5.79941 12.0908 14.4697 11.0807 15.3472C11.0245 15.3963 10.9821 15.4588 10.9585 15.5274L8.87574 21.1212L7.7234 13.7526Z" fill="#072746"/>
</svg>
